# MagicaVoxel @ ephtracy

# material
mtllib chr_knight.mtl
usemtl palette

# normals
vn -1 0 0
vn 1 0 0
vn 0 0 1
vn 0 0 -1
vn 0 -1 0
vn 0 1 0

# texcoords
vt 0.0332031 0.5
vt 0.845703 0.5
vt 0.876953 0.5
vt 0.986328 0.5
vt 0.990234 0.5
vt 0.994141 0.5

# verts
v -4 4 1
v -4 4 -0
v -4 5 1
v -4 5 -0
v -4 7 2
v -4 7 -0
v -4 8 2
v -4 8 1
v -4 8 -0
v -4 8 -1
v -4 9 1
v -4 9 -0
v -4 9 -1
v -4 9 -2
v -4 11 -0
v -4 11 -2
v -3 2 1
v -3 2 -0
v -3 4 1
v -3 4 -0
v -3 5 1
v -3 5 -0
v -3 5 -1
v -3 6 1
v -3 6 -0
v -3 7 3
v -3 7 2
v -3 7 1
v -3 7 -0
v -3 7 -1
v -3 8 3
v -3 8 2
v -3 8 1
v -3 8 -1
v -3 8 -3
v -3 9 1
v -3 9 -0
v -3 9 -1
v -3 9 -2
v -3 11 2
v -3 11 1
v -3 11 -0
v -3 11 -2
v -3 12 1
v -3 12 -0
v -3 12 -2
v -3 12 -3
v -3 13 -0
v -3 13 -2
v -2 0 1
v -2 0 -0
v -2 2 1
v -2 2 -0
v -2 3 -0
v -2 3 -1
v -2 4 2
v -2 4 1
v -2 4 -0
v -2 5 1
v -2 5 -0
v -2 5 -1
v -2 5 -2
v -2 6 1
v -2 7 2
v -2 7 1
v -2 7 -0
v -2 7 -1
v -2 8 -0
v -2 8 -2
v -2 9 -3
v -2 9 -4
v -2 11 3
v -2 11 2
v -2 11 1
v -2 12 3
v -2 12 2
v -2 12 1
v -2 12 -0
v -2 12 -2
v -2 12 -3
v -2 12 -4
v -2 13 2
v -2 13 1
v -2 13 -0
v -2 13 -1
v -2 13 -2
v -2 13 -3
v -2 14 1
v -2 14 -1
v -1 3 2
v -1 3 1
v -1 4 2
v -1 4 1
v -1 4 -1
v -1 4 -2
v -1 5 -1
v -1 5 -2
v -1 12 -3
v -1 12 -4
v -1 13 3
v -1 13 2
v -1 13 1
v -1 13 -1
v -1 13 -3
v -1 13 -4
v -1 14 4
v -1 14 3
v -1 14 1
v -1 14 -1
v -1 14 -2
v -1 14 -3
v -1 15 4
v -1 15 2
v -1 15 -1
v -1 15 -2
v -1 16 2
v -1 16 -1
v 1 0 1
v 1 0 -0
v 1 2 1
v 1 2 -0
v 1 3 1
v 1 3 -0
v 1 7 3
v 1 7 2
v 1 7 1
v 1 8 3
v 1 8 1
v 1 10 2
v 1 10 1
v 1 11 2
v 1 11 1
v 2 8 2
v 2 8 1
v 2 9 1
v 2 10 2
v 2 10 1
v 3 4 1
v 3 4 -0
v 3 5 1
v 3 5 -0
v -3 4 1
v -3 4 -0
v -3 5 1
v -3 5 -0
v -2 8 2
v -2 8 1
v -2 9 1
v -2 10 2
v -2 10 1
v -1 0 1
v -1 0 -0
v -1 2 1
v -1 2 -0
v -1 3 1
v -1 3 -0
v -1 7 3
v -1 7 2
v -1 7 1
v -1 8 3
v -1 8 1
v -1 10 2
v -1 10 1
v -1 11 2
v -1 11 1
v 1 3 2
v 1 3 1
v 1 4 2
v 1 4 1
v 1 4 -1
v 1 4 -2
v 1 5 -1
v 1 5 -2
v 1 12 -3
v 1 12 -4
v 1 13 3
v 1 13 2
v 1 13 1
v 1 13 -1
v 1 13 -3
v 1 13 -4
v 1 14 4
v 1 14 3
v 1 14 1
v 1 14 -1
v 1 14 -2
v 1 14 -3
v 1 15 4
v 1 15 2
v 1 15 -1
v 1 15 -2
v 1 16 2
v 1 16 -1
v 2 0 1
v 2 0 -0
v 2 2 1
v 2 2 -0
v 2 3 -0
v 2 3 -1
v 2 4 2
v 2 4 1
v 2 4 -0
v 2 5 1
v 2 5 -0
v 2 5 -1
v 2 5 -2
v 2 6 1
v 2 7 2
v 2 7 1
v 2 7 -0
v 2 7 -1
v 2 8 -0
v 2 8 -2
v 2 9 -3
v 2 9 -4
v 2 11 3
v 2 11 2
v 2 11 1
v 2 12 3
v 2 12 2
v 2 12 1
v 2 12 -0
v 2 12 -2
v 2 12 -3
v 2 12 -4
v 2 13 2
v 2 13 1
v 2 13 -0
v 2 13 -1
v 2 13 -2
v 2 13 -3
v 2 14 1
v 2 14 -1
v 3 2 1
v 3 2 -0
v 3 4 1
v 3 4 -0
v 3 5 1
v 3 5 -0
v 3 5 -1
v 3 6 1
v 3 6 -0
v 3 7 3
v 3 7 2
v 3 7 1
v 3 7 -0
v 3 7 -1
v 3 8 3
v 3 8 2
v 3 8 1
v 3 8 -1
v 3 8 -3
v 3 9 1
v 3 9 -0
v 3 9 -1
v 3 9 -2
v 3 11 2
v 3 11 1
v 3 11 -0
v 3 11 -2
v 3 12 1
v 3 12 -0
v 3 12 -2
v 3 12 -3
v 3 13 -0
v 3 13 -2
v 4 4 1
v 4 4 -0
v 4 5 1
v 4 5 -0
v 4 7 2
v 4 7 -0
v 4 8 2
v 4 8 1
v 4 8 -0
v 4 8 -1
v 4 9 1
v 4 9 -0
v 4 9 -1
v 4 9 -2
v 4 11 -0
v 4 11 -2
v -1 14 4
v -1 15 4
v 1 14 4
v 1 15 4
v -3 7 3
v -3 8 3
v -2 11 3
v -2 12 3
v -1 7 3
v -1 8 3
v -1 13 3
v -1 14 3
v 1 7 3
v 1 8 3
v 1 13 3
v 1 14 3
v 2 11 3
v 2 12 3
v 3 7 3
v 3 8 3
v -4 7 2
v -4 8 2
v -3 7 2
v -3 8 2
v -3 11 2
v -2 4 2
v -2 7 2
v -2 8 2
v -2 10 2
v -2 11 2
v -2 12 2
v -2 13 2
v -1 3 2
v -1 4 2
v -1 5 2
v -1 6 2
v -1 7 2
v -1 10 2
v -1 11 2
v -1 13 2
v -1 15 2
v -1 16 2
v 1 3 2
v 1 4 2
v 1 5 2
v 1 6 2
v 1 7 2
v 1 10 2
v 1 11 2
v 1 13 2
v 1 15 2
v 1 16 2
v 2 4 2
v 2 7 2
v 2 8 2
v 2 10 2
v 2 11 2
v 2 12 2
v 2 13 2
v 3 7 2
v 3 8 2
v 3 11 2
v 4 7 2
v 4 8 2
v -4 4 1
v -4 5 1
v -4 8 1
v -4 9 1
v -3 2 1
v -3 4 1
v -3 5 1
v -3 6 1
v -3 7 1
v -3 8 1
v -3 9 1
v -3 11 1
v -3 12 1
v -2 0 1
v -2 2 1
v -2 3 1
v -2 4 1
v -2 5 1
v -2 6 1
v -2 7 1
v -2 8 1
v -2 9 1
v -2 10 1
v -2 11 1
v -2 12 1
v -2 13 1
v -2 14 1
v -1 0 1
v -1 2 1
v -1 3 1
v -1 4 1
v -1 7 1
v -1 8 1
v -1 9 1
v -1 10 1
v -1 11 1
v -1 13 1
v -1 14 1
v 1 0 1
v 1 2 1
v 1 3 1
v 1 4 1
v 1 7 1
v 1 8 1
v 1 9 1
v 1 10 1
v 1 11 1
v 1 13 1
v 1 14 1
v 2 0 1
v 2 2 1
v 2 3 1
v 2 4 1
v 2 5 1
v 2 6 1
v 2 7 1
v 2 8 1
v 2 9 1
v 2 10 1
v 2 11 1
v 2 12 1
v 2 13 1
v 2 14 1
v 3 2 1
v 3 4 1
v 3 5 1
v 3 6 1
v 3 7 1
v 3 8 1
v 3 9 1
v 3 11 1
v 3 12 1
v 4 4 1
v 4 5 1
v 4 8 1
v 4 9 1
v -4 9 -0
v -4 11 -0
v -3 9 -0
v -3 11 -0
v -3 12 -0
v -3 13 -0
v -2 12 -0
v -2 13 -0
v 2 12 -0
v 2 13 -0
v 3 9 -0
v 3 11 -0
v 3 12 -0
v 3 13 -0
v 4 9 -0
v 4 11 -0
v -4 4 -0
v -4 5 -0
v -4 7 -0
v -4 8 -0
v -3 2 -0
v -3 4 -0
v -3 5 -0
v -3 7 -0
v -2 0 -0
v -2 2 -0
v -2 3 -0
v -2 4 -0
v -2 7 -0
v -2 8 -0
v -1 0 -0
v -1 2 -0
v -1 3 -0
v 1 0 -0
v 1 2 -0
v 1 3 -0
v 2 0 -0
v 2 2 -0
v 2 3 -0
v 2 4 -0
v 2 7 -0
v 2 8 -0
v 3 2 -0
v 3 4 -0
v 3 5 -0
v 3 7 -0
v 4 4 -0
v 4 5 -0
v 4 7 -0
v 4 8 -0
v -4 8 -1
v -4 9 -1
v -3 5 -1
v -3 7 -1
v -3 8 -1
v -3 9 -1
v -2 3 -1
v -2 5 -1
v -2 7 -1
v -2 13 -1
v -2 14 -1
v -1 4 -1
v -1 5 -1
v -1 13 -1
v -1 14 -1
v -1 15 -1
v -1 16 -1
v 1 4 -1
v 1 5 -1
v 1 13 -1
v 1 14 -1
v 1 15 -1
v 1 16 -1
v 2 3 -1
v 2 5 -1
v 2 7 -1
v 2 13 -1
v 2 14 -1
v 3 5 -1
v 3 7 -1
v 3 8 -1
v 3 9 -1
v 4 8 -1
v 4 9 -1
v -4 9 -2
v -4 11 -2
v -3 9 -2
v -3 11 -2
v -3 12 -2
v -3 13 -2
v -2 5 -2
v -2 8 -2
v -2 12 -2
v -2 13 -2
v -1 4 -2
v -1 5 -2
v -1 14 -2
v -1 15 -2
v 1 4 -2
v 1 5 -2
v 1 14 -2
v 1 15 -2
v 2 5 -2
v 2 8 -2
v 2 12 -2
v 2 13 -2
v 3 9 -2
v 3 11 -2
v 3 12 -2
v 3 13 -2
v 4 9 -2
v 4 11 -2
v -3 8 -3
v -3 12 -3
v -2 9 -3
v -2 12 -3
v -2 13 -3
v -1 12 -3
v -1 13 -3
v -1 14 -3
v 1 12 -3
v 1 13 -3
v 1 14 -3
v 2 9 -3
v 2 12 -3
v 2 13 -3
v 3 8 -3
v 3 12 -3
v -2 9 -4
v -2 12 -4
v -1 12 -4
v -1 13 -4
v 1 12 -4
v 1 13 -4
v 2 9 -4
v 2 12 -4
v -2 0 1
v -1 0 1
v 1 0 1
v 2 0 1
v -2 0 -0
v -1 0 -0
v 1 0 -0
v 2 0 -0
v -3 2 1
v -2 2 1
v 2 2 1
v 3 2 1
v -3 2 -0
v -2 2 -0
v 2 2 -0
v 3 2 -0
v -1 3 2
v 1 3 2
v -1 3 1
v 1 3 1
v -2 3 -0
v -1 3 -0
v 1 3 -0
v 2 3 -0
v -2 3 -1
v 2 3 -1
v -2 4 2
v -1 4 2
v 1 4 2
v 2 4 2
v -4 4 1
v -3 4 1
v -2 4 1
v -1 4 1
v 1 4 1
v 2 4 1
v 3 4 1
v 4 4 1
v -4 4 -0
v -3 4 -0
v 3 4 -0
v 4 4 -0
v -1 4 -1
v 1 4 -1
v -1 4 -2
v 1 4 -2
v -3 5 1
v -2 5 1
v 2 5 1
v 3 5 1
v -3 5 -0
v -2 5 -0
v 2 5 -0
v 3 5 -0
v -3 5 -1
v -2 5 -1
v -1 5 -1
v 1 5 -1
v 2 5 -1
v 3 5 -1
v -2 5 -2
v -1 5 -2
v 1 5 -2
v 2 5 -2
v -3 7 3
v -1 7 3
v 1 7 3
v 3 7 3
v -4 7 2
v -3 7 2
v -2 7 2
v -1 7 2
v 1 7 2
v 2 7 2
v 3 7 2
v 4 7 2
v -3 7 1
v -2 7 1
v 2 7 1
v 3 7 1
v -4 7 -0
v -3 7 -0
v 3 7 -0
v 4 7 -0
v -4 8 -0
v -2 8 -0
v 2 8 -0
v 4 8 -0
v -4 8 -1
v -3 8 -1
v 3 8 -1
v 4 8 -1
v -2 8 -2
v 2 8 -2
v -3 8 -3
v 3 8 -3
v -4 9 -1
v -3 9 -1
v 3 9 -1
v 4 9 -1
v -4 9 -2
v -3 9 -2
v 3 9 -2
v 4 9 -2
v -2 9 -3
v 2 9 -3
v -2 9 -4
v 2 9 -4
v -2 10 2
v -1 10 2
v 1 10 2
v 2 10 2
v -2 10 1
v -1 10 1
v 1 10 1
v 2 10 1
v -2 11 3
v 2 11 3
v -2 11 2
v -1 11 2
v 1 11 2
v 2 11 2
v -1 11 1
v 1 11 1
v -1 13 3
v 1 13 3
v -1 13 2
v 1 13 2
v -1 14 4
v 1 14 4
v -1 14 3
v 1 14 3
v -3 4 1
v -2 4 1
v 2 4 1
v 3 4 1
v -3 4 -0
v -2 4 -0
v 2 4 -0
v 3 4 -0
v -4 5 1
v -3 5 1
v 3 5 1
v 4 5 1
v -4 5 -0
v -3 5 -0
v 3 5 -0
v 4 5 -0
v -1 7 2
v 1 7 2
v -1 7 1
v 1 7 1
v -3 7 -0
v -2 7 -0
v 2 7 -0
v 3 7 -0
v -3 7 -1
v -2 7 -1
v 2 7 -1
v 3 7 -1
v -3 8 3
v -1 8 3
v 1 8 3
v 3 8 3
v -4 8 2
v -3 8 2
v -2 8 2
v 2 8 2
v 3 8 2
v 4 8 2
v -4 8 1
v -3 8 1
v -2 8 1
v -1 8 1
v 1 8 1
v 2 8 1
v 3 8 1
v 4 8 1
v -4 9 1
v -3 9 1
v 3 9 1
v 4 9 1
v -4 9 -0
v -3 9 -0
v 3 9 -0
v 4 9 -0
v -3 11 2
v -2 11 2
v 2 11 2
v 3 11 2
v -3 11 1
v -2 11 1
v 2 11 1
v 3 11 1
v -4 11 -0
v -3 11 -0
v 3 11 -0
v 4 11 -0
v -4 11 -2
v -3 11 -2
v 3 11 -2
v 4 11 -2
v -2 12 3
v 2 12 3
v -2 12 2
v 2 12 2
v -3 12 1
v -2 12 1
v 2 12 1
v 3 12 1
v -3 12 -0
v -2 12 -0
v 2 12 -0
v 3 12 -0
v -3 12 -2
v -2 12 -2
v 2 12 -2
v 3 12 -2
v -3 12 -3
v -2 12 -3
v -1 12 -3
v 1 12 -3
v 2 12 -3
v 3 12 -3
v -2 12 -4
v -1 12 -4
v 1 12 -4
v 2 12 -4
v -2 13 2
v -1 13 2
v 1 13 2
v 2 13 2
v -2 13 1
v -1 13 1
v 1 13 1
v 2 13 1
v -3 13 -0
v -2 13 -0
v 2 13 -0
v 3 13 -0
v -2 13 -1
v -1 13 -1
v 1 13 -1
v 2 13 -1
v -3 13 -2
v -2 13 -2
v 2 13 -2
v 3 13 -2
v -2 13 -3
v -1 13 -3
v 1 13 -3
v 2 13 -3
v -1 13 -4
v 1 13 -4
v -2 14 1
v -1 14 1
v 1 14 1
v 2 14 1
v -2 14 -1
v -1 14 -1
v 1 14 -1
v 2 14 -1
v -1 14 -2
v 1 14 -2
v -1 14 -3
v 1 14 -3
v -1 15 4
v 1 15 4
v -1 15 2
v 1 15 2
v -1 15 -1
v 1 15 -1
v -1 15 -2
v 1 15 -2
v -1 16 2
v 1 16 2
v -1 16 -1
v 1 16 -1

# faces
f 3/1/1 2/1/1 1/1/1
f 4/1/1 2/1/1 3/1/1
f 7/3/1 6/3/1 5/3/1
f 8/3/1 6/3/1 7/3/1
f 9/3/1 6/3/1 8/3/1
f 11/3/1 9/3/1 8/3/1
f 11/3/1 10/3/1 9/3/1
f 12/3/1 10/3/1 11/3/1
f 13/3/1 10/3/1 12/3/1
f 15/3/1 14/3/1 13/3/1
f 15/3/1 13/3/1 12/3/1
f 16/3/1 14/3/1 15/3/1
f 19/6/1 18/6/1 17/6/1
f 20/6/1 18/6/1 19/6/1
f 24/1/1 22/1/1 21/1/1
f 25/6/1 23/6/1 22/6/1
f 25/1/1 22/1/1 24/1/1
f 28/6/1 25/6/1 24/6/1
f 29/6/1 23/6/1 25/6/1
f 29/6/1 25/6/1 28/6/1
f 30/6/1 23/6/1 29/6/1
f 31/3/1 27/3/1 26/3/1
f 32/3/1 27/3/1 31/3/1
f 36/3/1 33/3/1 32/3/1
f 38/3/1 35/3/1 34/3/1
f 39/3/1 35/3/1 38/3/1
f 40/3/1 37/3/1 36/3/1
f 40/3/1 36/3/1 32/3/1
f 41/3/1 37/3/1 40/3/1
f 42/3/1 37/3/1 41/3/1
f 43/3/1 35/3/1 39/3/1
f 44/3/1 42/3/1 41/3/1
f 44/3/1 43/3/1 42/3/1
f 45/3/1 43/3/1 44/3/1
f 46/3/1 35/3/1 43/3/1
f 46/3/1 43/3/1 45/3/1
f 47/3/1 35/3/1 46/3/1
f 48/3/1 46/3/1 45/3/1
f 49/3/1 46/3/1 48/3/1
f 52/6/1 51/6/1 50/6/1
f 53/6/1 51/6/1 52/6/1
f 58/6/1 55/6/1 54/6/1
f 59/6/1 57/6/1 56/6/1
f 59/6/1 58/6/1 57/6/1
f 60/6/1 55/6/1 58/6/1
f 60/6/1 58/6/1 59/6/1
f 61/6/1 55/6/1 60/6/1
f 63/6/1 59/6/1 56/6/1
f 64/6/1 63/6/1 56/6/1
f 65/6/1 63/6/1 64/6/1
f 67/6/1 62/6/1 61/6/1
f 68/6/1 67/6/1 66/6/1
f 69/6/1 62/6/1 67/6/1
f 69/6/1 67/6/1 68/6/1
f 75/3/1 73/3/1 72/3/1
f 75/3/1 74/3/1 73/3/1
f 76/3/1 74/3/1 75/3/1
f 77/3/1 74/3/1 76/3/1
f 80/3/1 71/3/1 70/3/1
f 81/3/1 71/3/1 80/3/1
f 82/3/1 78/3/1 77/3/1
f 82/3/1 77/3/1 76/3/1
f 83/3/1 78/3/1 82/3/1
f 84/3/1 78/3/1 83/3/1
f 86/3/1 80/3/1 79/3/1
f 87/3/1 80/3/1 86/3/1
f 88/3/1 85/3/1 84/3/1
f 88/3/1 84/3/1 83/3/1
f 89/3/1 85/3/1 88/3/1
f 92/6/1 91/6/1 90/6/1
f 93/6/1 91/6/1 92/6/1
f 96/6/1 95/6/1 94/6/1
f 97/6/1 95/6/1 96/6/1
f 104/2/1 99/2/1 98/2/1
f 105/2/1 99/2/1 104/2/1
f 107/2/1 102/2/1 101/2/1
f 107/2/1 101/2/1 100/2/1
f 108/2/1 102/2/1 107/2/1
f 109/2/1 104/2/1 103/2/1
f 110/2/1 104/2/1 109/2/1
f 111/2/1 104/2/1 110/2/1
f 112/2/1 108/2/1 107/2/1
f 112/2/1 107/2/1 106/2/1
f 112/2/1 110/2/1 109/2/1
f 112/2/1 109/2/1 108/2/1
f 113/2/1 110/2/1 112/2/1
f 114/2/1 110/2/1 113/2/1
f 115/2/1 110/2/1 114/2/1
f 116/2/1 114/2/1 113/2/1
f 117/2/1 114/2/1 116/2/1
f 120/6/1 119/6/1 118/6/1
f 121/6/1 119/6/1 120/6/1
f 122/1/1 121/1/1 120/1/1
f 123/1/1 121/1/1 122/1/1
f 127/3/1 125/3/1 124/3/1
f 127/3/1 126/3/1 125/3/1
f 128/3/1 126/3/1 127/3/1
f 131/3/1 130/3/1 129/3/1
f 132/3/1 130/3/1 131/3/1
f 135/3/1 134/3/1 133/3/1
f 136/3/1 135/3/1 133/3/1
f 137/3/1 135/3/1 136/3/1
f 140/1/1 139/1/1 138/1/1
f 141/1/1 139/1/1 140/1/1
f 142/1/2 143/1/2 144/1/2
f 144/1/2 143/1/2 145/1/2
f 146/3/2 147/3/2 148/3/2
f 146/3/2 148/3/2 149/3/2
f 149/3/2 148/3/2 150/3/2
f 151/6/2 152/6/2 153/6/2
f 153/6/2 152/6/2 154/6/2
f 153/1/2 154/1/2 155/1/2
f 155/1/2 154/1/2 156/1/2
f 157/3/2 158/3/2 160/3/2
f 158/3/2 159/3/2 160/3/2
f 160/3/2 159/3/2 161/3/2
f 162/3/2 163/3/2 164/3/2
f 164/3/2 163/3/2 165/3/2
f 166/6/2 167/6/2 168/6/2
f 168/6/2 167/6/2 169/6/2
f 170/6/2 171/6/2 172/6/2
f 172/6/2 171/6/2 173/6/2
f 174/2/2 175/2/2 180/2/2
f 180/2/2 175/2/2 181/2/2
f 177/2/2 178/2/2 183/2/2
f 176/2/2 177/2/2 183/2/2
f 183/2/2 178/2/2 184/2/2
f 179/2/2 180/2/2 185/2/2
f 185/2/2 180/2/2 186/2/2
f 186/2/2 180/2/2 187/2/2
f 183/2/2 184/2/2 188/2/2
f 182/2/2 183/2/2 188/2/2
f 185/2/2 186/2/2 188/2/2
f 184/2/2 185/2/2 188/2/2
f 188/2/2 186/2/2 189/2/2
f 189/2/2 186/2/2 190/2/2
f 190/2/2 186/2/2 191/2/2
f 189/2/2 190/2/2 192/2/2
f 192/2/2 190/2/2 193/2/2
f 194/6/2 195/6/2 196/6/2
f 196/6/2 195/6/2 197/6/2
f 198/6/2 199/6/2 202/6/2
f 200/6/2 201/6/2 203/6/2
f 201/6/2 202/6/2 203/6/2
f 202/6/2 199/6/2 204/6/2
f 203/6/2 202/6/2 204/6/2
f 204/6/2 199/6/2 205/6/2
f 200/6/2 203/6/2 207/6/2
f 200/6/2 207/6/2 208/6/2
f 208/6/2 207/6/2 209/6/2
f 205/6/2 206/6/2 211/6/2
f 210/6/2 211/6/2 212/6/2
f 211/6/2 206/6/2 213/6/2
f 212/6/2 211/6/2 213/6/2
f 216/3/2 217/3/2 219/3/2
f 217/3/2 218/3/2 219/3/2
f 219/3/2 218/3/2 220/3/2
f 220/3/2 218/3/2 221/3/2
f 214/3/2 215/3/2 224/3/2
f 224/3/2 215/3/2 225/3/2
f 221/3/2 222/3/2 226/3/2
f 220/3/2 221/3/2 226/3/2
f 226/3/2 222/3/2 227/3/2
f 227/3/2 222/3/2 228/3/2
f 223/3/2 224/3/2 230/3/2
f 230/3/2 224/3/2 231/3/2
f 228/3/2 229/3/2 232/3/2
f 227/3/2 228/3/2 232/3/2
f 232/3/2 229/3/2 233/3/2
f 234/6/2 235/6/2 236/6/2
f 236/6/2 235/6/2 237/6/2
f 238/1/2 239/1/2 241/1/2
f 239/6/2 240/6/2 242/6/2
f 241/1/2 239/1/2 242/1/2
f 241/6/2 242/6/2 245/6/2
f 242/6/2 240/6/2 246/6/2
f 245/6/2 242/6/2 246/6/2
f 246/6/2 240/6/2 247/6/2
f 243/3/2 244/3/2 248/3/2
f 248/3/2 244/3/2 249/3/2
f 249/3/2 250/3/2 253/3/2
f 251/3/2 252/3/2 255/3/2
f 255/3/2 252/3/2 256/3/2
f 253/3/2 254/3/2 257/3/2
f 249/3/2 253/3/2 257/3/2
f 257/3/2 254/3/2 258/3/2
f 258/3/2 254/3/2 259/3/2
f 256/3/2 252/3/2 260/3/2
f 258/3/2 259/3/2 261/3/2
f 259/3/2 260/3/2 261/3/2
f 261/3/2 260/3/2 262/3/2
f 260/3/2 252/3/2 263/3/2
f 262/3/2 260/3/2 263/3/2
f 263/3/2 252/3/2 264/3/2
f 262/3/2 263/3/2 265/3/2
f 265/3/2 263/3/2 266/3/2
f 267/1/2 268/1/2 269/1/2
f 269/1/2 268/1/2 270/1/2
f 271/3/2 272/3/2 273/3/2
f 273/3/2 272/3/2 274/3/2
f 274/3/2 272/3/2 275/3/2
f 274/3/2 275/3/2 277/3/2
f 275/3/2 276/3/2 277/3/2
f 277/3/2 276/3/2 278/3/2
f 278/3/2 276/3/2 279/3/2
f 279/3/2 280/3/2 281/3/2
f 278/3/2 279/3/2 281/3/2
f 281/3/2 280/3/2 282/3/2
f 285/2/3 284/2/3 283/2/3
f 286/2/3 284/2/3 285/2/3
f 291/3/3 288/3/3 287/3/3
f 292/3/3 288/3/3 291/3/3
f 297/2/3 294/2/3 293/2/3
f 298/2/3 294/2/3 297/2/3
f 299/3/3 290/3/3 289/3/3
f 300/3/3 290/3/3 299/3/3
f 301/3/3 296/3/3 295/3/3
f 302/3/3 296/3/3 301/3/3
f 305/3/3 304/3/3 303/3/3
f 306/3/3 304/3/3 305/3/3
f 310/3/3 307/3/3 306/3/3
f 311/3/3 307/3/3 310/3/3
f 312/3/3 307/3/3 311/3/3
f 316/6/3 309/6/3 308/6/3
f 317/6/3 309/6/3 316/6/3
f 318/6/3 309/6/3 317/6/3
f 319/6/3 309/6/3 318/6/3
f 320/3/3 312/3/3 311/3/3
f 321/3/3 312/3/3 320/3/3
f 322/3/3 314/3/3 313/3/3
f 325/6/3 316/6/3 315/6/3
f 326/5/3 317/5/3 316/5/3
f 326/6/3 316/6/3 325/6/3
f 327/6/3 318/6/3 317/6/3
f 327/5/3 317/5/3 326/5/3
f 328/5/3 319/5/3 318/5/3
f 328/6/3 318/6/3 327/6/3
f 329/5/3 319/5/3 328/5/3
f 332/3/3 322/3/3 313/3/3
f 333/2/3 324/2/3 323/2/3
f 334/2/3 324/2/3 333/2/3
f 335/6/3 327/6/3 326/6/3
f 335/6/3 328/6/3 327/6/3
f 335/6/3 329/6/3 328/6/3
f 336/6/3 329/6/3 335/6/3
f 338/3/3 331/3/3 330/3/3
f 339/3/3 331/3/3 338/3/3
f 340/3/3 332/3/3 313/3/3
f 341/3/3 332/3/3 340/3/3
f 343/3/3 339/3/3 338/3/3
f 343/3/3 338/3/3 337/3/3
f 344/3/3 339/3/3 343/3/3
f 345/3/3 343/3/3 342/3/3
f 346/3/3 343/3/3 345/3/3
f 352/1/3 348/1/3 347/1/3
f 353/1/3 348/1/3 352/1/3
f 356/3/3 350/3/3 349/3/3
f 357/3/3 350/3/3 356/3/3
f 361/6/3 352/6/3 351/6/3
f 362/6/3 352/6/3 361/6/3
f 363/6/3 352/6/3 362/6/3
f 364/1/3 354/1/3 353/1/3
f 365/6/3 355/6/3 354/6/3
f 365/1/3 354/1/3 364/1/3
f 366/6/3 355/6/3 365/6/3
f 370/3/3 359/3/3 358/3/3
f 371/3/3 359/3/3 370/3/3
f 374/6/3 361/6/3 360/6/3
f 375/1/3 362/1/3 361/1/3
f 375/6/3 361/6/3 374/6/3
f 376/6/3 363/6/3 362/6/3
f 376/1/3 362/1/3 375/1/3
f 377/6/3 363/6/3 376/6/3
f 379/1/3 368/1/3 367/1/3
f 380/6/3 369/6/3 368/6/3
f 380/1/3 368/1/3 379/1/3
f 381/6/3 369/6/3 380/6/3
f 383/3/3 373/3/3 372/3/3
f 384/3/3 373/3/3 383/3/3
f 389/6/3 379/6/3 378/6/3
f 390/1/3 381/1/3 380/1/3
f 390/6/3 379/6/3 389/6/3
f 390/1/3 380/1/3 379/1/3
f 391/1/3 381/1/3 390/1/3
f 392/3/3 382/3/3 381/3/3
f 392/1/3 381/1/3 391/1/3
f 393/3/3 382/3/3 392/3/3
f 396/6/3 386/6/3 385/6/3
f 397/1/3 387/1/3 386/1/3
f 397/6/3 386/6/3 396/6/3
f 398/6/3 388/6/3 387/6/3
f 398/1/3 387/1/3 397/1/3
f 399/6/3 388/6/3 398/6/3
f 403/1/3 391/1/3 390/1/3
f 404/6/3 392/6/3 391/6/3
f 404/1/3 391/1/3 403/1/3
f 405/6/3 392/6/3 404/6/3
f 408/3/3 395/3/3 394/3/3
f 409/3/3 395/3/3 408/3/3
f 410/6/3 398/6/3 397/6/3
f 410/6/3 399/6/3 398/6/3
f 411/6/3 399/6/3 410/6/3
f 412/1/3 401/1/3 400/1/3
f 413/6/3 402/6/3 401/6/3
f 413/1/3 401/1/3 412/1/3
f 414/6/3 402/6/3 413/6/3
f 417/3/3 407/3/3 406/3/3
f 418/3/3 407/3/3 417/3/3
f 419/1/3 412/1/3 411/1/3
f 420/1/3 412/1/3 419/1/3
f 421/3/3 416/3/3 415/3/3
f 422/3/3 416/3/3 421/3/3
f 425/3/3 424/3/3 423/3/3
f 426/3/3 424/3/3 425/3/3
f 429/3/3 428/3/3 427/3/3
f 430/3/3 428/3/3 429/3/3
f 435/3/3 432/3/3 431/3/3
f 436/3/3 432/3/3 435/3/3
f 437/3/3 434/3/3 433/3/3
f 438/3/3 434/3/3 437/3/3
f 439/1/4 440/1/4 444/1/4
f 444/1/4 440/1/4 445/1/4
f 441/3/4 442/3/4 446/3/4
f 443/6/4 444/6/4 448/6/4
f 448/6/4 444/6/4 449/6/4
f 449/6/4 444/6/4 450/6/4
f 446/3/4 442/3/4 451/3/4
f 451/3/4 442/3/4 452/3/4
f 447/6/4 448/6/4 453/6/4
f 448/1/4 449/1/4 454/1/4
f 453/6/4 448/6/4 454/6/4
f 454/1/4 449/1/4 455/1/4
f 456/6/4 457/6/4 459/6/4
f 457/1/4 458/1/4 460/1/4
f 459/6/4 457/6/4 460/6/4
f 460/1/4 458/1/4 461/1/4
f 460/6/4 461/6/4 465/6/4
f 461/6/4 462/6/4 465/6/4
f 465/6/4 462/6/4 466/6/4
f 463/3/4 464/3/4 468/3/4
f 466/1/4 467/1/4 469/1/4
f 469/1/4 467/1/4 470/1/4
f 468/3/4 464/3/4 471/3/4
f 471/3/4 464/3/4 472/3/4
f 473/3/4 474/3/4 477/3/4
f 477/3/4 474/3/4 478/3/4
f 475/6/4 476/6/4 480/6/4
f 480/6/4 476/6/4 481/6/4
f 479/6/4 480/6/4 484/6/4
f 484/6/4 480/6/4 485/6/4
f 482/3/4 483/3/4 486/3/4
f 486/3/4 483/3/4 487/3/4
f 479/6/4 484/6/4 490/6/4
f 488/2/4 489/2/4 494/2/4
f 494/2/4 489/2/4 495/2/4
f 479/6/4 490/6/4 496/6/4
f 490/6/4 491/6/4 496/6/4
f 496/6/4 491/6/4 497/6/4
f 492/3/4 493/3/4 499/3/4
f 499/3/4 493/3/4 500/3/4
f 497/6/4 498/6/4 501/6/4
f 501/6/4 498/6/4 502/6/4
f 503/3/4 504/3/4 505/3/4
f 505/3/4 504/3/4 506/3/4
f 507/3/4 508/3/4 509/3/4
f 509/3/4 508/3/4 510/3/4
f 511/3/4 512/3/4 515/3/4
f 515/3/4 512/3/4 516/3/4
f 513/6/4 514/6/4 518/6/4
f 517/6/4 518/6/4 521/6/4
f 518/6/4 514/6/4 522/6/4
f 521/6/4 518/6/4 522/6/4
f 519/2/4 520/2/4 523/2/4
f 523/2/4 520/2/4 524/2/4
f 522/6/4 514/6/4 525/6/4
f 525/6/4 514/6/4 526/6/4
f 527/3/4 528/3/4 531/3/4
f 531/3/4 528/3/4 532/3/4
f 529/3/4 530/3/4 533/3/4
f 533/3/4 530/3/4 534/3/4
f 535/3/4 536/3/4 537/3/4
f 537/3/4 536/3/4 538/3/4
f 538/3/4 539/3/4 540/3/4
f 540/3/4 539/3/4 541/3/4
f 541/2/4 542/2/4 544/2/4
f 544/2/4 542/2/4 545/2/4
f 535/3/4 537/3/4 546/3/4
f 543/3/4 544/3/4 547/3/4
f 547/3/4 544/3/4 548/3/4
f 535/3/4 546/3/4 549/3/4
f 546/3/4 547/3/4 549/3/4
f 549/3/4 547/3/4 550/3/4
f 551/3/4 552/3/4 553/3/4
f 551/3/4 553/3/4 555/3/4
f 553/2/4 554/2/4 555/2/4
f 555/2/4 554/2/4 556/2/4
f 551/3/4 555/3/4 557/3/4
f 557/3/4 555/3/4 558/3/4
f 563/6/5 560/6/5 559/6/5
f 564/6/5 560/6/5 563/6/5
f 565/6/5 562/6/5 561/6/5
f 566/6/5 562/6/5 565/6/5
f 571/6/5 568/6/5 567/6/5
f 572/6/5 568/6/5 571/6/5
f 573/6/5 570/6/5 569/6/5
f 574/6/5 570/6/5 573/6/5
f 577/6/5 576/6/5 575/6/5
f 578/6/5 576/6/5 577/6/5
f 580/6/5 578/6/5 577/6/5
f 581/6/5 578/6/5 580/6/5
f 583/6/5 581/6/5 580/6/5
f 583/6/5 582/6/5 581/6/5
f 583/6/5 580/6/5 579/6/5
f 584/6/5 582/6/5 583/6/5
f 591/6/5 586/6/5 585/6/5
f 592/6/5 586/6/5 591/6/5
f 593/6/5 588/6/5 587/6/5
f 594/6/5 588/6/5 593/6/5
f 597/1/5 590/1/5 589/1/5
f 598/1/5 590/1/5 597/1/5
f 599/1/5 596/1/5 595/1/5
f 600/1/5 596/1/5 599/1/5
f 603/6/5 602/6/5 601/6/5
f 604/6/5 602/6/5 603/6/5
f 609/1/5 606/1/5 605/1/5
f 610/1/5 606/1/5 609/1/5
f 611/1/5 608/1/5 607/1/5
f 612/1/5 608/1/5 611/1/5
f 613/6/5 610/6/5 609/6/5
f 614/6/5 610/6/5 613/6/5
f 617/6/5 612/6/5 611/6/5
f 618/6/5 612/6/5 617/6/5
f 619/6/5 615/6/5 614/6/5
f 620/6/5 615/6/5 619/6/5
f 621/6/5 617/6/5 616/6/5
f 622/6/5 617/6/5 621/6/5
f 628/3/5 624/3/5 623/3/5
f 629/3/5 624/3/5 628/3/5
f 630/3/5 624/3/5 629/3/5
f 631/3/5 626/3/5 625/3/5
f 632/3/5 626/3/5 631/3/5
f 633/3/5 626/3/5 632/3/5
f 635/3/5 628/3/5 627/3/5
f 635/3/5 629/3/5 628/3/5
f 636/3/5 629/3/5 635/3/5
f 637/3/5 634/3/5 633/3/5
f 637/3/5 633/3/5 632/3/5
f 638/3/5 634/3/5 637/3/5
f 639/3/5 635/3/5 627/3/5
f 640/3/5 635/3/5 639/3/5
f 641/3/5 634/3/5 638/3/5
f 642/3/5 634/3/5 641/3/5
f 647/3/5 644/3/5 643/3/5
f 648/3/5 644/3/5 647/3/5
f 649/3/5 646/3/5 645/3/5
f 650/3/5 646/3/5 649/3/5
f 651/3/5 644/3/5 648/3/5
f 652/3/5 649/3/5 645/3/5
f 653/3/5 651/3/5 648/3/5
f 653/3/5 652/3/5 651/3/5
f 654/3/5 649/3/5 652/3/5
f 654/3/5 652/3/5 653/3/5
f 659/3/5 656/3/5 655/3/5
f 660/3/5 656/3/5 659/3/5
f 661/3/5 658/3/5 657/3/5
f 662/3/5 658/3/5 661/3/5
f 665/3/5 664/3/5 663/3/5
f 666/3/5 664/3/5 665/3/5
f 671/3/5 668/3/5 667/3/5
f 672/3/5 668/3/5 671/3/5
f 673/3/5 670/3/5 669/3/5
f 674/3/5 670/3/5 673/3/5
f 677/3/5 676/3/5 675/3/5
f 678/3/5 676/3/5 677/3/5
f 679/3/5 676/3/5 678/3/5
f 680/3/5 676/3/5 679/3/5
f 681/3/5 679/3/5 678/3/5
f 682/3/5 679/3/5 681/3/5
f 685/2/5 684/2/5 683/2/5
f 686/2/5 684/2/5 685/2/5
f 689/2/5 688/2/5 687/2/5
f 690/2/5 688/2/5 689/2/5
f 691/6/6 692/6/6 695/6/6
f 695/6/6 692/6/6 696/6/6
f 693/6/6 694/6/6 697/6/6
f 697/6/6 694/6/6 698/6/6
f 699/1/6 700/1/6 703/1/6
f 703/1/6 700/1/6 704/1/6
f 701/1/6 702/1/6 705/1/6
f 705/1/6 702/1/6 706/1/6
f 707/5/6 708/5/6 709/5/6
f 709/5/6 708/5/6 710/5/6
f 711/6/6 712/6/6 715/6/6
f 715/6/6 712/6/6 716/6/6
f 713/6/6 714/6/6 717/6/6
f 717/6/6 714/6/6 718/6/6
f 719/3/6 720/3/6 724/3/6
f 724/3/6 720/3/6 725/3/6
f 721/3/6 722/3/6 726/3/6
f 726/3/6 722/3/6 727/3/6
f 723/3/6 724/3/6 729/3/6
f 729/3/6 724/3/6 730/3/6
f 725/3/6 720/3/6 731/3/6
f 731/3/6 720/3/6 732/3/6
f 721/3/6 726/3/6 733/3/6
f 733/3/6 726/3/6 734/3/6
f 727/3/6 728/3/6 735/3/6
f 735/3/6 728/3/6 736/3/6
f 737/3/6 738/3/6 741/3/6
f 741/3/6 738/3/6 742/3/6
f 739/3/6 740/3/6 743/3/6
f 743/3/6 740/3/6 744/3/6
f 745/3/6 746/3/6 749/3/6
f 749/3/6 746/3/6 750/3/6
f 747/3/6 748/3/6 751/3/6
f 751/3/6 748/3/6 752/3/6
f 753/3/6 754/3/6 757/3/6
f 757/3/6 754/3/6 758/3/6
f 755/3/6 756/3/6 759/3/6
f 759/3/6 756/3/6 760/3/6
f 761/3/6 762/3/6 763/3/6
f 763/3/6 762/3/6 764/3/6
f 765/3/6 766/3/6 769/3/6
f 769/3/6 766/3/6 770/3/6
f 767/3/6 768/3/6 771/3/6
f 771/3/6 768/3/6 772/3/6
f 773/3/6 774/3/6 777/3/6
f 777/3/6 774/3/6 778/3/6
f 775/3/6 776/3/6 781/3/6
f 781/3/6 776/3/6 782/3/6
f 778/3/6 779/3/6 783/3/6
f 783/3/6 779/3/6 784/3/6
f 780/3/6 781/3/6 785/3/6
f 785/3/6 781/3/6 786/3/6
f 787/3/6 788/3/6 791/3/6
f 791/3/6 788/3/6 792/3/6
f 789/3/6 790/3/6 793/3/6
f 793/3/6 790/3/6 794/3/6
f 795/3/6 796/3/6 799/3/6
f 797/3/6 798/3/6 802/3/6
f 799/3/6 800/3/6 803/3/6
f 795/3/6 799/3/6 803/3/6
f 803/3/6 800/3/6 804/3/6
f 801/3/6 802/3/6 805/3/6
f 802/3/6 798/3/6 805/3/6
f 805/3/6 798/3/6 806/3/6
f 804/3/6 800/3/6 807/3/6
f 807/3/6 800/3/6 808/3/6
f 801/3/6 805/3/6 809/3/6
f 809/3/6 805/3/6 810/3/6
f 808/2/6 809/2/6 811/2/6
f 811/2/6 809/2/6 812/2/6
f 813/3/6 814/3/6 817/3/6
f 817/3/6 814/3/6 818/3/6
f 815/3/6 816/3/6 819/3/6
f 819/3/6 816/3/6 820/3/6
f 821/2/6 822/2/6 823/2/6
f 823/2/6 822/2/6 824/2/6
f 825/2/6 826/2/6 827/2/6
f 827/2/6 826/2/6 828/2/6
f 829/2/6 830/2/6 831/2/6
f 831/2/6 830/2/6 832/2/6
f 833/2/6 834/2/6 835/2/6
f 835/2/6 834/2/6 836/2/6
