# MagicaVoxel @ ephtracy

# material
mtllib staff.mtl
usemtl palette

# normals
vn -1 0 0
vn 1 0 0
vn 0 0 1
vn 0 0 -1
vn 0 -1 0
vn 0 1 0

# texcoords
vt 0.537109 0.5
vt 0.689453 0.5

# verts
v -5 0 0.5
v -5 0 -0.5
v -5 1 0.5
v -5 1 -0.5
v -4 1 0.5
v -4 1 -0.5
v -4 2 0.5
v -4 2 -0.5
v -3 2 0.5
v -3 2 -0.5
v -3 3 0.5
v -3 3 -0.5
v -2 3 0.5
v -2 3 -0.5
v -2 4 0.5
v -2 4 -0.5
v -1 4 0.5
v -1 4 -0.5
v -1 5 0.5
v -1 5 -0.5
v 0 5 0.5
v 0 5 -0.5
v 0 6 0.5
v 0 6 -0.5
v 1 6 0.5
v 1 6 -0.5
v 1 7 0.5
v 1 7 -0.5
v 2 7 0.5
v 2 7 -0.5
v 2 8 0.5
v 2 8 -0.5
v 2 9 0.5
v 2 9 -0.5
v 3 8 1.5
v 3 8 0.5
v 3 8 -0.5
v 3 8 -1.5
v 3 9 1.5
v 3 9 0.5
v 3 9 -0.5
v 3 9 -1.5
v 3 10 0.5
v 3 10 -0.5
v -4 0 0.5
v -4 0 -0.5
v -4 1 0.5
v -4 1 -0.5
v -3 1 0.5
v -3 1 -0.5
v -3 2 0.5
v -3 2 -0.5
v -2 2 0.5
v -2 2 -0.5
v -2 3 0.5
v -2 3 -0.5
v -1 3 0.5
v -1 3 -0.5
v -1 4 0.5
v -1 4 -0.5
v 0 4 0.5
v 0 4 -0.5
v 0 5 0.5
v 0 5 -0.5
v 1 5 0.5
v 1 5 -0.5
v 1 6 0.5
v 1 6 -0.5
v 2 6 0.5
v 2 6 -0.5
v 2 7 0.5
v 2 7 -0.5
v 4 7 0.5
v 4 7 -0.5
v 4 8 1.5
v 4 8 0.5
v 4 8 -0.5
v 4 8 -1.5
v 4 9 1.5
v 4 9 0.5
v 4 9 -0.5
v 4 9 -1.5
v 4 10 0.5
v 4 10 -0.5
v 5 8 0.5
v 5 8 -0.5
v 5 9 0.5
v 5 9 -0.5
v 3 8 1.5
v 3 9 1.5
v 4 8 1.5
v 4 9 1.5
v -5 0 0.5
v -5 1 0.5
v -4 0 0.5
v -4 1 0.5
v -4 2 0.5
v -3 1 0.5
v -3 2 0.5
v -3 3 0.5
v -2 2 0.5
v -2 3 0.5
v -2 4 0.5
v -1 3 0.5
v -1 4 0.5
v -1 5 0.5
v 0 4 0.5
v 0 5 0.5
v 0 6 0.5
v 1 5 0.5
v 1 6 0.5
v 1 7 0.5
v 2 6 0.5
v 2 7 0.5
v 2 8 0.5
v 2 9 0.5
v 3 7 0.5
v 3 8 0.5
v 3 9 0.5
v 3 10 0.5
v 4 7 0.5
v 4 8 0.5
v 4 9 0.5
v 4 10 0.5
v 5 8 0.5
v 5 9 0.5
v -5 0 -0.5
v -5 1 -0.5
v -4 0 -0.5
v -4 1 -0.5
v -4 2 -0.5
v -3 1 -0.5
v -3 2 -0.5
v -3 3 -0.5
v -2 2 -0.5
v -2 3 -0.5
v -2 4 -0.5
v -1 3 -0.5
v -1 4 -0.5
v -1 5 -0.5
v 0 4 -0.5
v 0 5 -0.5
v 0 6 -0.5
v 1 5 -0.5
v 1 6 -0.5
v 1 7 -0.5
v 2 6 -0.5
v 2 7 -0.5
v 2 8 -0.5
v 2 9 -0.5
v 3 7 -0.5
v 3 8 -0.5
v 3 9 -0.5
v 3 10 -0.5
v 4 7 -0.5
v 4 8 -0.5
v 4 9 -0.5
v 4 10 -0.5
v 5 8 -0.5
v 5 9 -0.5
v 3 8 -1.5
v 3 9 -1.5
v 4 8 -1.5
v 4 9 -1.5
v -5 0 0.5
v -4 0 0.5
v -5 0 -0.5
v -4 0 -0.5
v -4 1 0.5
v -3 1 0.5
v -4 1 -0.5
v -3 1 -0.5
v -3 2 0.5
v -2 2 0.5
v -3 2 -0.5
v -2 2 -0.5
v -2 3 0.5
v -1 3 0.5
v -2 3 -0.5
v -1 3 -0.5
v -1 4 0.5
v 0 4 0.5
v -1 4 -0.5
v 0 4 -0.5
v 0 5 0.5
v 1 5 0.5
v 0 5 -0.5
v 1 5 -0.5
v 1 6 0.5
v 2 6 0.5
v 1 6 -0.5
v 2 6 -0.5
v 2 7 0.5
v 3 7 0.5
v 4 7 0.5
v 2 7 -0.5
v 3 7 -0.5
v 4 7 -0.5
v 3 8 1.5
v 4 8 1.5
v 3 8 0.5
v 4 8 0.5
v 5 8 0.5
v 3 8 -0.5
v 4 8 -0.5
v 5 8 -0.5
v 3 8 -1.5
v 4 8 -1.5
v -5 1 0.5
v -4 1 0.5
v -5 1 -0.5
v -4 1 -0.5
v -4 2 0.5
v -3 2 0.5
v -4 2 -0.5
v -3 2 -0.5
v -3 3 0.5
v -2 3 0.5
v -3 3 -0.5
v -2 3 -0.5
v -2 4 0.5
v -1 4 0.5
v -2 4 -0.5
v -1 4 -0.5
v -1 5 0.5
v 0 5 0.5
v -1 5 -0.5
v 0 5 -0.5
v 0 6 0.5
v 1 6 0.5
v 0 6 -0.5
v 1 6 -0.5
v 1 7 0.5
v 2 7 0.5
v 1 7 -0.5
v 2 7 -0.5
v 3 9 1.5
v 4 9 1.5
v 2 9 0.5
v 3 9 0.5
v 4 9 0.5
v 5 9 0.5
v 2 9 -0.5
v 3 9 -0.5
v 4 9 -0.5
v 5 9 -0.5
v 3 9 -1.5
v 4 9 -1.5
v 3 10 0.5
v 4 10 0.5
v 3 10 -0.5
v 4 10 -0.5

# faces
f 3/1/1 2/1/1 1/1/1
f 4/1/1 2/1/1 3/1/1
f 7/1/1 6/1/1 5/1/1
f 8/1/1 6/1/1 7/1/1
f 11/1/1 10/1/1 9/1/1
f 12/1/1 10/1/1 11/1/1
f 15/1/1 14/1/1 13/1/1
f 16/1/1 14/1/1 15/1/1
f 19/1/1 18/1/1 17/1/1
f 20/1/1 18/1/1 19/1/1
f 23/1/1 22/1/1 21/1/1
f 24/1/1 22/1/1 23/1/1
f 27/1/1 26/1/1 25/1/1
f 28/1/1 26/1/1 27/1/1
f 31/1/1 30/1/1 29/1/1
f 32/1/1 30/1/1 31/1/1
f 33/2/1 32/2/1 31/2/1
f 34/2/1 32/2/1 33/2/1
f 39/2/1 36/2/1 35/2/1
f 40/2/1 36/2/1 39/2/1
f 41/2/1 38/2/1 37/2/1
f 42/2/1 38/2/1 41/2/1
f 43/2/1 41/2/1 40/2/1
f 44/2/1 41/2/1 43/2/1
f 45/1/2 46/1/2 47/1/2
f 47/1/2 46/1/2 48/1/2
f 49/1/2 50/1/2 51/1/2
f 51/1/2 50/1/2 52/1/2
f 53/1/2 54/1/2 55/1/2
f 55/1/2 54/1/2 56/1/2
f 57/1/2 58/1/2 59/1/2
f 59/1/2 58/1/2 60/1/2
f 61/1/2 62/1/2 63/1/2
f 63/1/2 62/1/2 64/1/2
f 65/1/2 66/1/2 67/1/2
f 67/1/2 66/1/2 68/1/2
f 69/1/2 70/1/2 71/1/2
f 71/1/2 70/1/2 72/1/2
f 73/2/2 74/2/2 76/2/2
f 76/2/2 74/2/2 77/2/2
f 75/2/2 76/2/2 79/2/2
f 79/2/2 76/2/2 80/2/2
f 77/2/2 78/2/2 81/2/2
f 81/2/2 78/2/2 82/2/2
f 80/2/2 81/2/2 83/2/2
f 83/2/2 81/2/2 84/2/2
f 85/2/2 86/2/2 87/2/2
f 87/2/2 86/2/2 88/2/2
f 91/2/3 90/2/3 89/2/3
f 92/2/3 90/2/3 91/2/3
f 95/1/3 94/1/3 93/1/3
f 96/1/3 94/1/3 95/1/3
f 98/1/3 97/1/3 96/1/3
f 99/1/3 97/1/3 98/1/3
f 101/1/3 100/1/3 99/1/3
f 102/1/3 100/1/3 101/1/3
f 104/1/3 103/1/3 102/1/3
f 105/1/3 103/1/3 104/1/3
f 107/1/3 106/1/3 105/1/3
f 108/1/3 106/1/3 107/1/3
f 110/1/3 109/1/3 108/1/3
f 111/1/3 109/1/3 110/1/3
f 113/1/3 112/1/3 111/1/3
f 114/1/3 112/1/3 113/1/3
f 117/1/3 115/1/3 114/1/3
f 118/2/3 116/2/3 115/2/3
f 118/1/3 115/1/3 117/1/3
f 119/2/3 116/2/3 118/2/3
f 121/2/3 118/2/3 117/2/3
f 122/2/3 118/2/3 121/2/3
f 123/2/3 120/2/3 119/2/3
f 124/2/3 120/2/3 123/2/3
f 125/2/3 123/2/3 122/2/3
f 126/2/3 123/2/3 125/2/3
f 127/1/4 128/1/4 129/1/4
f 129/1/4 128/1/4 130/1/4
f 130/1/4 131/1/4 132/1/4
f 132/1/4 131/1/4 133/1/4
f 133/1/4 134/1/4 135/1/4
f 135/1/4 134/1/4 136/1/4
f 136/1/4 137/1/4 138/1/4
f 138/1/4 137/1/4 139/1/4
f 139/1/4 140/1/4 141/1/4
f 141/1/4 140/1/4 142/1/4
f 142/1/4 143/1/4 144/1/4
f 144/1/4 143/1/4 145/1/4
f 145/1/4 146/1/4 147/1/4
f 147/1/4 146/1/4 148/1/4
f 148/1/4 149/1/4 151/1/4
f 149/2/4 150/2/4 152/2/4
f 151/1/4 149/1/4 152/1/4
f 152/2/4 150/2/4 153/2/4
f 151/2/4 152/2/4 155/2/4
f 155/2/4 152/2/4 156/2/4
f 153/2/4 154/2/4 157/2/4
f 157/2/4 154/2/4 158/2/4
f 156/2/4 157/2/4 159/2/4
f 159/2/4 157/2/4 160/2/4
f 161/2/4 162/2/4 163/2/4
f 163/2/4 162/2/4 164/2/4
f 167/1/5 166/1/5 165/1/5
f 168/1/5 166/1/5 167/1/5
f 171/1/5 170/1/5 169/1/5
f 172/1/5 170/1/5 171/1/5
f 175/1/5 174/1/5 173/1/5
f 176/1/5 174/1/5 175/1/5
f 179/1/5 178/1/5 177/1/5
f 180/1/5 178/1/5 179/1/5
f 183/1/5 182/1/5 181/1/5
f 184/1/5 182/1/5 183/1/5
f 187/1/5 186/1/5 185/1/5
f 188/1/5 186/1/5 187/1/5
f 191/1/5 190/1/5 189/1/5
f 192/1/5 190/1/5 191/1/5
f 196/1/5 194/1/5 193/1/5
f 197/2/5 195/2/5 194/2/5
f 197/1/5 194/1/5 196/1/5
f 198/2/5 195/2/5 197/2/5
f 201/2/5 200/2/5 199/2/5
f 202/2/5 200/2/5 201/2/5
f 205/2/5 203/2/5 202/2/5
f 206/2/5 203/2/5 205/2/5
f 207/2/5 205/2/5 204/2/5
f 208/2/5 205/2/5 207/2/5
f 209/1/6 210/1/6 211/1/6
f 211/1/6 210/1/6 212/1/6
f 213/1/6 214/1/6 215/1/6
f 215/1/6 214/1/6 216/1/6
f 217/1/6 218/1/6 219/1/6
f 219/1/6 218/1/6 220/1/6
f 221/1/6 222/1/6 223/1/6
f 223/1/6 222/1/6 224/1/6
f 225/1/6 226/1/6 227/1/6
f 227/1/6 226/1/6 228/1/6
f 229/1/6 230/1/6 231/1/6
f 231/1/6 230/1/6 232/1/6
f 233/1/6 234/1/6 235/1/6
f 235/1/6 234/1/6 236/1/6
f 237/2/6 238/2/6 240/2/6
f 240/2/6 238/2/6 241/2/6
f 239/2/6 240/2/6 243/2/6
f 243/2/6 240/2/6 244/2/6
f 241/2/6 242/2/6 245/2/6
f 245/2/6 242/2/6 246/2/6
f 244/2/6 245/2/6 247/2/6
f 247/2/6 245/2/6 248/2/6
f 249/2/6 250/2/6 251/2/6
f 251/2/6 250/2/6 252/2/6
